<?xml version="1.0" encoding="utf-8"?>
<!-- Generator: Adobe Illustrator 28.0.0, SVG Export Plug-In . SVG Version: 6.00 Build 0)  -->
<svg version="1.1" xmlns="http://www.w3.org/2000/svg" xmlns:xlink="http://www.w3.org/1999/xlink" x="0px" y="0px"
	 viewBox="0 0 2500 200" style="enable-background:new 0 0 2500 200;" xml:space="preserve">
<style type="text/css">
	.st0{fill:#A7BA36;}
</style>
<g id="Layer_2">
</g>
<g id="Layer_3">
	<g id="XMLID_00000006707364199898325550000001826819159937361308_">
		<path id="XMLID_00000139275144060368538790000011836889743819194005_" class="st0" d="M2472.1,47.7c-13,0-23.6-10.6-23.6-23.6
			c0-13,10.6-23.6,23.6-23.6c13,0,23.6,10.6,23.6,23.6C2495.7,37.1,2485.1,47.7,2472.1,47.7z M2472.1,4.2
			c-10.9,0-19.8,8.9-19.8,19.8c0,10.9,8.9,19.8,19.8,19.8c10.9,0,19.8-8.9,19.8-19.8C2491.9,13.1,2483,4.2,2472.1,4.2z"/>
	</g>
	<g id="XMLID_00000152227498844472981040000008195217149206405041_">
		<path id="XMLID_00000106845363032983461170000011233305973888789423_" class="st0" d="M2462.3,37.4V10.7h11.8
			c2.4,0,4.2,0.2,5.4,0.7c1.2,0.5,2.2,1.3,3,2.6c0.7,1.2,1.1,2.5,1.1,4c0,1.9-0.6,3.5-1.8,4.8c-1.2,1.3-3.1,2.1-5.7,2.5
			c0.9,0.5,1.6,0.9,2.1,1.3c1,1,2,2.1,2.9,3.6l4.6,7.2h-4.4l-3.5-5.5c-1-1.6-1.9-2.8-2.6-3.7c-0.7-0.9-1.3-1.4-1.8-1.8
			c-0.5-0.3-1.1-0.6-1.6-0.7c-0.4-0.1-1-0.1-2-0.1h-4.1v11.8H2462.3z M2465.8,22.5h7.6c1.6,0,2.9-0.2,3.8-0.5
			c0.9-0.3,1.6-0.9,2.1-1.6c0.5-0.7,0.7-1.6,0.7-2.4c0-1.3-0.5-2.3-1.4-3.1c-0.9-0.8-2.4-1.2-4.3-1.2h-8.4V22.5z"/>
	</g>
</g>
<g id="Layer_4">
	<path class="st0" d="M604.1,149.9H358.9c-8.9,0-16.1,8.6-16.1,19.3v11.5c0,10.6,7.2,19.3,16.1,19.3h245.3c8.9,0,16.1-8.6,16.1-19.3
		v-11.5C620.3,158.6,613,149.9,604.1,149.9z"/>
	<path class="st0" d="M940.7,179.9l-64-65.1c17.3-3,31.9-8.8,43.5-17.2c14.8-10.8,22.3-24.1,22.3-39.4c0-18.6-9.5-33.2-28.1-43.4
		c-17.5-9.5-58.7-13.2-60.5-13.3c-6.3-0.6-16.7-1-23.2-1H652.8c-8.9,0-16.1,8.6-16.1,19.3v159.6c0,10.6,7.2,19.3,16.1,19.3h22.8
		c8.9,0,16.1-8.6,16.1-19.3v-54.6c0-4.4,3-8,6.7-8h104.2c5.2,0,13.2,3.5,17.2,7.4l65.1,64.5c5.7,5.6,15.9,10,23.2,10h26.7
		c7,0,9.2-3.9,9.9-6.3C945.6,190.1,946,185.3,940.7,179.9z M886,58.4c0,3.6-1,9-9.7,13.6c-6.2,3.3-18.7,4.9-23,5.3
		c-6.2,0.5-16.3,0.9-22.5,0.9H698.5c-3.7,0-6.7-3.6-6.7-8v-23c0-4.4,3-8,6.7-8h143.6c15,0,26.5,2,34.2,6C885,49.6,886,54.8,886,58.4
		z"/>
	<path class="st0" d="M1463.6,12.2c-5.2-6.6-15.2-11.7-22.7-11.7h-5.8c-7.5,0-17.5,5.2-22.7,11.7l-132.6,168.2
		c-4.7,5.9-4,10.8-3.1,13.2c0.8,2.4,3.3,6.4,10.1,6.4h25.5c7.6,0,17.5-5.2,22.7-11.8l21.9-28.1c3.4-4.4,10.8-8.2,15.8-8.2h131
		c5,0,12.4,3.8,15.9,8.2l22.1,28.1c5.2,6.6,15.2,11.8,22.7,11.8h25.9c6.8,0,9.2-4,10.1-6.4c0.8-2.4,1.6-7.2-3.1-13.2L1463.6,12.2z
		 M1392,115.7c0.1-0.1,0.2-0.2,0.3-0.3l41.5-52c1.2-1.5,2.8-2.3,4.5-2.3c1.7,0,3.3,0.8,4.5,2.4l40.9,51.9c0.1,0.1,0.2,0.3,0.3,0.4
		c-0.1,0-0.3,0-0.5,0h-91.1C1392.2,115.7,1392.1,115.7,1392,115.7z"/>
	<path class="st0" d="M1863.3,0.5h-22.1c-8.9,0-16.1,8.7-16.1,19.4v104.9c0,1.9-0.4,2.6-0.5,2.7c0,0,0,0,0,0c0,0-0.1,0-0.2,0
		c-0.2,0-0.9-0.1-2-0.9L1656.5,8.4c-6.2-4.4-16.6-7.8-23.7-7.8h-1c-8.9,0-16.1,8.7-16.1,19.4v160.7c0,10.7,7.2,19.4,16.1,19.4h22.2
		c8.9,0,16.1-8.7,16.1-19.4V76.5c0-1.9,0.4-2.7,0.5-2.7h0c0,0,0.1,0,0.2,0c0.2,0,0.9,0.1,2.1,0.9l165.7,117.6
		c6.1,4.4,16.5,7.8,23.7,7.8h1.1c8.9,0,16.1-8.7,16.1-19.4V19.9C1879.4,9.2,1872.2,0.5,1863.3,0.5z"/>
	<path class="st0" d="M2147.2,161.2h-162.9l169.4-142.5c5.5-4.7,5.8-9,5-11.9c-0.8-2.9-3.1-6.3-9.8-6.3H1915
		c-8.9,0-16.1,8.7-16.1,19.4c0,10.7,7.2,19.4,16.1,19.4h146.3l-167.5,142.4c-5.5,4.7-5.7,9.1-5,11.9c0.8,2.9,3.1,6.3,9.8,6.3h248.6
		c8.9,0,16.1-8.7,16.1-19.4C2163.3,169.9,2156.1,161.2,2147.2,161.2z"/>
	<path class="st0" d="M2496.3,180.5L2362.6,12.2c-5.2-6.6-15.2-11.7-22.7-11.7h-5.8c-7.5,0-17.5,5.2-22.7,11.7l-132.6,168.2
		c-4.7,5.9-4,10.8-3.1,13.2c0.8,2.4,3.3,6.4,10.1,6.4h25.5c7.5,0,17.5-5.2,22.7-11.8l21.9-28.1c3.4-4.4,10.8-8.2,15.8-8.2h131
		c5,0,12.4,3.8,15.9,8.2l22.2,28.2c5.2,6.6,15.1,11.8,22.7,11.8h25.9c6.8,0,9.2-4,10.1-6.4S2500.9,186.4,2496.3,180.5z M2383,115.7
		c-0.1,0-0.3,0-0.5,0h-91.1c-0.1,0-0.3,0-0.4,0c0.1-0.1,0.2-0.2,0.3-0.3l41.5-52c1.2-1.5,2.8-2.3,4.5-2.3c1.7,0,3.3,0.8,4.5,2.4
		l40.9,51.9C2382.8,115.4,2382.9,115.5,2383,115.7z"/>
	<path class="st0" d="M604.1,1.8H358.9c-8.9,0-16.1,8.6-16.1,19.3v11.5c0,10.6,7.2,19.3,16.1,19.3h245.3c8.9,0,16.1-8.6,16.1-19.3
		V21.1C620.3,10.5,613,1.8,604.1,1.8z"/>
	<path class="st0" d="M358.9,126h120.3c8.9,0,16.1-8.6,16.1-19.3V95.2c0-10.6-7.2-19.3-16.1-19.3H358.9c-8.9,0-16.1,8.6-16.1,19.3
		v11.5C342.7,117.3,350,126,358.9,126z"/>
	<g>
		<path class="st0" d="M1253.6,127.4c-2.9-2-6.7-1.7-9.3,0.7c-21.7,20-65.8,33.7-116.6,33.7c-72.4,0-131-27.8-131-62.1
			s58.7-62.1,131-62.1c43.3,0,81.6,9.9,105.5,25.2c2.5,1.6,5.7,1.5,8.1-0.2l23.7-16.8c4.3-3.1,4-9.4-0.5-12.2
			C1231.1,13,1182.2,0,1127.7,0c-100.8,0-182.6,44.7-182.6,99.7s81.8,99.7,182.6,99.7c62.5,0,117.6-17.1,150.5-43.3
			c3.8-3,3.5-8.8-0.4-11.6L1253.6,127.4z"/>
	</g>
	<g>
		<path class="st0" d="M308.3,1.8h-15.1c-7.3,0-17.5,4.2-23.3,9.5l-101.6,93.1c-1.6,1.4-3.8,2.3-6.2,2.3c-2.4,0-4.6-0.8-6.2-2.3
			L54.5,11.3C48.7,6,38.4,1.8,31.1,1.8h-15C8.2,1.8,1.7,8.6,0.3,17.6c-0.2,1.4,0.3,2.9,1.4,3.9l149.7,140.1c3,2.3,6.7,3.6,10.6,3.6
			c4.4,0,8.7-1.7,11.9-4.6l93.9-87.6c0.5-0.5,1-0.8,1.3-1c0.1,0.4,0.1,1,0.1,1.8v107c0,10.6,7.2,19.3,16.1,19.3h22.8
			c8.9,0,16.1-8.6,16.1-19.3V21.1C324.4,10.5,317.2,1.8,308.3,1.8z"/>
		<path class="st0" d="M7.6,60.5C4.7,57.8,0,59.8,0,63.8v116.9C0,191.4,7.2,200,16.1,200H39c8.9,0,16.1-8.6,16.1-19.3v-73.9
			c0-1.3-0.5-2.5-1.4-3.3L7.6,60.5z"/>
	</g>
</g>
</svg>
