<?xml version="1.0" encoding="UTF-8"?>
<svg width="16px" height="12px" viewBox="0 0 16 12" version="1.1" xmlns="http://www.w3.org/2000/svg" xmlns:xlink="http://www.w3.org/1999/xlink">
    <!-- Generator: Sketch 60.1 (88133) - https://sketch.com -->
    <title>DLSicons /Generic /sheet</title>
    <desc>Created with Sketch.</desc>
    <defs>
        <path d="M14.5,9.5029 C14.5,10.0465088 14.0965576,10.5 13.503,10.5 L13,10.5 L12,10.5 L11,10.5 L5.5,10.5 C5.5,10.5322266 6,10.0367432 6,9.5 L6,9 L11,8.9999 L12,8.9999 L13,8.9999 L14.5,8.9999 L14.5,9.5029 Z M4.5,8.7 L4.5,9.15 C4.5,9.8952 3.75991667,10.5 3,10.5 C2.24008333,10.5 1.5,9.8952 1.5,9.15 L1.5,8.7 L1.5,8.25 L1.5,7.8 L1.5,1.68 C1.5,1.5801 1.58158333,1.5 1.68333333,1.5 L12.3175833,1.5 C12.4184167,1.5 12.5,1.5801 12.5,1.68 L12.5,7.5 L11.5833333,7.5 L10.6666667,7.5 L5.16666667,7.5 L4.5,7.5 L4.5,8.7 Z M15,7.5 L14,7.5 L14,0.9999 C14,0.4469 13.553,-0.0001 13.001,-0.0001 L1,-0.0001 C0.447,-0.0001 0,0.4469 0,0.9999 L0,7.9999 L0,8.4999 L0,8.9999 L0,9.4999 C0,10.8789 1.122,11.9999 2.5,11.9999 L11,11.9999 L12,11.9999 L13,11.9999 L13.503,11.9999 C14.88,11.9999 16,10.8799 16,9.5029 L16,8.9999 L16,7.5 L15,7.5 Z" id="path-1"></path>
    </defs>
    <g id="Page-1" stroke="none" stroke-width="1" fill="none" fill-rule="evenodd">
        <g id="Expand-cards" transform="translate(-377.000000, -1270.000000)">
            <g id="DLSicons-/Generic-/sheet" transform="translate(377.000000, 1270.000000)">
                <mask id="mask-2" fill="white">
                    <use xlink:href="#path-1"></use>
                </mask>
                <use id="Fill-1" fill="#000000" xlink:href="#path-1"></use>
                <g id="Greyscale-/25" mask="url(#mask-2)" fill="#404040">
                    <g transform="translate(0.000000, -2.000000)" id="Greyscale-25">
                        <polygon points="0 0 16 0 16 16 0 16"></polygon>
                    </g>
                </g>
            </g>
        </g>
    </g>
</svg>