<svg width="752pt" height="752pt" viewBox="0 0 752 752" xmlns="http://www.w3.org/2000/svg" class="icon_irjl">
    <path
        d="M310.17 297.39c-4.262-4.262-11.367-4.262-16.102 0l-48.305 48.305-20.363-20.363c-4.262-4.262-11.367-4.262-16.102 0-4.262 4.262-4.262 11.367 0 16.102l27.941 27.941c2.367 2.367 5.21 3.316 8.05 3.316 2.84 0 5.684-.945 8.052-3.316l56.355-56.355c5.21-4.262 5.21-11.367.472-15.629z">
    </path>
    <path
        d="M590.54 421.46c6.629-5.684 10.418-14.207 10.418-23.68 0-17.523-14.207-31.73-31.73-31.73-5.21 0-18.941 0-33.152.473-14.68 0-30.309.472-36.465.472-1.422 0-2.367 0-2.84-.472s-.472-.946-.472-1.422c5.21-21.785 11.367-50.2 13.262-59.672 3.316-16.574-6.157-31.258-23.68-35.992-17.523-5.211-34.57 2.367-40.727 16.574-8.524 21.312-36.938 73.406-66.773 91.875-.473 0-.473.472-.946.472-4.261-3.316-9.945-5.21-15.629-5.21h-.945c4.734-12.312 8.05-25.574 8.05-39.781l-.007-70.082c0-5.684-4.262-10.418-9.945-11.367-68.195-7.106-88.086-45.938-88.56-47.832-1.894-3.79-5.683-6.157-9.945-6.157s-8.05 2.368-9.945 6.157c-.945 1.894-20.836 40.727-88.559 47.832-6.633.949-10.895 5.683-10.895 11.367v70.09c0 82.875 99.453 134.97 103.71 137.34 1.422.945 3.316 1.421 5.21 1.421 1.895 0 3.317-.472 5.212-1.421 1.422-.946 13.734-7.579 29.363-18.941v65.355c0 14.68 11.84 26.52 26.52 26.52h41.203c7.578 0 14.207-2.84 18.94-8.051 13.735 9.472 36.939 17.996 62.985 17.996h109.4c17.523 0 31.73-14.207 31.73-31.73 0-6.63-1.895-12.785-5.211-17.523 6.629-5.684 10.418-14.207 10.418-23.68 0-6.63-1.895-12.785-5.211-17.523 6.629-5.684 10.418-14.207 10.418-23.68 0-7.102-1.894-13.262-5.207-17.996zm-330.56 26.047c-19.414-11.367-86.191-54.934-86.191-114.13v-60.145c47.832-7.106 73.879-29.363 86.664-44.043 12.785 15.156 38.832 36.938 86.664 44.043l.004 60.145c0 14.207-3.79 27.469-9.945 39.781H322.02c-14.68 0-26.52 11.84-26.52 26.52v23.68c-14.68 11.367-28.414 19.891-35.52 24.152zm106.56 69.617a4.244 4.244 0 0 1-4.262 4.262h-41.203a4.244 4.244 0 0 1-4.261-4.262v-117.92a4.244 4.244 0 0 1 4.261-4.262h41.203a4.244 4.244 0 0 1 4.262 4.262zm202.69-109.87h-13.262c-6.156 0-10.891 4.734-10.891 10.891s4.734 10.891 10.891 10.891h8.05c5.212 0 9.474 4.262 9.474 9.473 0 5.21-4.262 9.472-9.473 9.472h-12.785c-6.156 0-10.891 4.735-10.891 10.891s4.734 10.891 10.89 10.891h8.052c5.21 0 9.472 4.262 9.472 9.473 0 5.211-4.261 9.473-9.472 9.473H546.5c-6.157 0-10.891 4.734-10.891 10.89s4.734 10.892 10.89 10.892h8.051c5.211 0 9.473 4.262 9.473 9.473 0 5.21-4.262 9.472-9.473 9.472l-110.35.004c-30.309 0-51.148-13.262-55.41-17.996v-115.08c0-.945.473-1.894 1.422-2.367 37.887-23.207 68.195-83.352 75.773-102.77 1.895-4.262 8.524-5.211 13.734-3.79 3.317.946 9.473 3.79 8.051 10.892-1.422 7.105-6.156 27.94-12.785 58.723-1.422 7.105 0 14.207 4.734 19.89 4.735 5.684 11.367 8.997 18.47 8.997 5.21 0 21.784 0 38.358-.473 13.734 0 27.47-.472 32.676-.472 5.211 0 9.473 4.261 9.473 9.472.004 8.528-4.258 12.79-9.469 12.79z">
    </path>
</svg>