<svg width="752pt" height="752pt" viewBox="0 0 752 752" xmlns="http://www.w3.org/2000/svg" class="icon_irjl"><path d="M562.01 162.93c-37.023 2.16-103.68 8.504-134.12 26.797-39.117 23.504-77.719 67.629-108.86 109.98l-62.121 8.121c-11.988 1.567-22.418 9.434-27.227 20.523l-14.566 33.621a9.446 9.446 0 0 0 .352 8.25 9.47 9.47 0 0 0 6.691 4.84l42.34 7.484a939.03 939.03 0 0 0-7.941 13.691c-5.657 9.965-3.934 22.586 4.183 30.703l2.363 2.364-10.039 10.039c-10.109 10.117-10.109 26.578 0 36.699l22.898 22.902c4.903 4.902 11.418 7.597 18.352 7.597 6.93 0 13.445-2.699 18.348-7.601l10.035-10.035 2.364 2.363c4.844 4.844 11.277 7.512 18.105 7.512 4.406 0 8.758-1.153 12.598-3.328a905.916 905.916 0 0 0 13.688-7.942l7.484 42.34a9.457 9.457 0 0 0 4.84 6.692 9.448 9.448 0 0 0 8.25.351l33.621-14.562c11.09-4.808 18.957-15.238 20.523-27.227l8.121-62.12c42.355-31.149 86.477-69.747 109.98-108.86 18.29-30.442 24.641-97.095 26.797-134.12.41-7.122-2.05-13.896-6.934-19.075a25.561 25.561 0 0 0-20.129-8.004zM237.26 358.5l9.797-22.613c2.168-5.012 6.883-8.563 12.3-9.273L304 320.778c-11.133 16.102-20.926 31.328-28.996 44.395zm62.008 127.04c-2.648 2.648-7.266 2.648-9.906 0l-22.898-22.898c-2.735-2.734-2.735-7.18 0-9.906l10.039-10.035 32.805 32.805zm126.12 7.106c-.71 5.418-4.262 10.129-9.273 12.3l-22.613 9.797-6.672-37.738c13.062-8.066 28.293-17.863 44.395-28.996zm120.65-178.29c-43.375 72.19-163.76 144.25-199.62 164.62-2.547 1.44-5.883.964-7.957-1.102l-9.047-9.05c-.004-.005-.004-.009-.008-.017l-46.203-46.203c-.004-.003-.008-.003-.015-.007l-9.051-9.051c-2.11-2.113-2.567-5.383-1.102-7.957 20.363-35.863 92.426-156.25 164.62-199.62 27.97-16.801 97.055-22.465 125.87-24.133 1.848 0 3.567.742 4.84 2.09a6.61 6.61 0 0 1 1.8 4.972c-1.651 28.41-7.316 97.496-24.12 125.46z"></path><path d="M467.91 235.17c-13.07 0-25.355 5.09-34.602 14.332-19.07 19.074-19.07 50.117 0 69.191 9.238 9.238 21.523 14.332 34.594 14.332 13.066 0 25.355-5.086 34.594-14.332 19.074-19.074 19.074-50.113 0-69.195-9.23-9.242-21.516-14.328-34.586-14.328zm21.203 70.125c-5.664 5.664-13.195 8.781-21.203 8.781s-15.539-3.117-21.203-8.781c-11.688-11.691-11.688-30.711 0-42.406 5.664-5.664 13.195-8.781 21.203-8.781s15.539 3.117 21.203 8.781c11.691 11.691 11.691 30.715 0 42.406zM218.71 480.91c-13.996 0-27.152 5.45-37.043 15.344-18.645 18.637-18.91 72.832-18.773 83.504.066 5.133 4.215 9.281 9.352 9.352l1.324.007c19.066 0 65.242-1.828 82.184-18.773 9.894-9.894 15.344-23.05 15.344-37.043 0-13.996-5.45-27.152-15.344-37.043-9.89-9.894-23.047-15.348-37.043-15.348zm23.652 76.035c-8.16 8.16-35.543 12.328-60.426 13.094.707-22.766 4.75-52.027 13.121-60.395 6.316-6.316 14.715-9.793 23.652-9.793s17.332 3.477 23.652 9.793c6.316 6.316 9.793 14.715 9.793 23.652 0 8.934-3.477 17.332-9.793 23.648z"></path></svg>