<svg width="752pt" height="752pt" viewBox="0 0 752 752" xmlns="http://www.w3.org/2000/svg" class="icon_irjl"><path d="M531.39 154.01c-36.719 0-66.598 29.871-66.598 66.598 0 15.391 5.297 29.547 14.105 40.84l-95.285 96.406c-14.121-11.758-32.25-18.852-52.016-18.852-15.16 0-29.309 4.238-41.484 11.492l-44.043-88.086c15.867-10.637 26.332-28.719 26.332-49.203 0-32.641-26.559-59.199-59.199-59.199s-59.199 26.559-59.199 59.199 26.559 59.199 59.199 59.199c6.883 0 13.469-1.242 19.617-3.41l45.16 90.32c-16.98 14.926-27.777 36.746-27.777 61.082 0 19.78 7.11 37.922 18.883 52.05l-44.996 44.997c-7.262-5.172-16.109-8.25-25.684-8.25-24.484 0-44.398 19.914-44.398 44.398s19.914 44.398 44.398 44.398 44.398-19.914 44.398-44.398c0-9.574-3.078-18.426-8.25-25.684l44.996-44.996c14.125 11.77 32.27 18.883 52.047 18.883 30.348 0 56.824-16.723 70.816-41.418l62.512 31.258c-.027.926-.133 1.828-.133 2.762 0 36.727 29.88 66.598 66.598 66.598s66.598-29.871 66.598-66.598c0-36.727-29.879-66.598-66.598-66.598-30.44 0-56.125 20.555-64.035 48.504l-58.863-29.438c2.867-8.31 4.504-17.188 4.504-26.47 0-19.792-7.117-37.952-18.914-52.077l95.11-96.234c11.5 9.437 26.194 15.117 42.198 15.117 36.72 0 66.598-29.871 66.598-66.598 0-36.723-29.879-66.594-66.598-66.594zM168.8 213.205c0-24.484 19.914-44.398 44.398-44.398s44.398 19.914 44.398 44.398-19.914 44.398-44.398 44.398-44.398-19.91-44.398-44.398zm362.59 229.39c28.562 0 51.797 23.242 51.797 51.797 0 28.555-23.234 51.797-51.797 51.797s-51.797-23.242-51.797-51.797c0-28.555 23.234-51.797 51.797-51.797zm-332.98 140.59c-16.324 0-29.598-13.273-29.598-29.598s13.273-29.598 29.598-29.598c16.324 0 29.598 13.273 29.598 29.598s-13.277 29.598-29.598 29.598zM331.6 486.99c-36.719 0-66.598-29.871-66.598-66.598 0-36.727 29.879-66.598 66.598-66.598s66.598 29.871 66.598 66.598c0 36.727-29.879 66.598-66.598 66.598zM531.39 272.4c-28.562 0-51.797-23.242-51.797-51.797s23.234-51.797 51.797-51.797 51.797 23.242 51.797 51.797S559.953 272.4 531.39 272.4z"></path><path d="M435.2 191.01c0-20.402-16.598-37-37-37s-37 16.598-37 37 16.598 37 37 37 37-16.598 37-37zm-59.199 0c0-12.238 9.96-22.199 22.199-22.199s22.199 9.96 22.199 22.199c0 12.238-9.96 22.199-22.199 22.199s-22.199-9.96-22.199-22.199zM361.2 279.8c0-20.402-16.598-37-37-37s-37 16.598-37 37 16.598 37 37 37 37-16.598 37-37zm-59.199 0c0-12.238 9.96-22.199 22.199-22.199s22.199 9.96 22.199 22.199c0 12.238-9.96 22.199-22.199 22.199s-22.199-9.96-22.199-22.199zM168.81 438.9c0 18.359 14.941 33.301 33.301 33.301s33.297-14.941 33.297-33.297c0-18.363-14.938-33.301-33.297-33.301S168.81 420.541 168.81 438.9zm33.301-18.5c10.195 0 18.5 8.297 18.5 18.5s-8.305 18.5-18.5 18.5c-10.199 0-18.5-8.297-18.5-18.5s8.3-18.5 18.5-18.5zM176.21 316.8c-12.238 0-22.199 9.96-22.199 22.199 0 12.238 9.96 22.199 22.199 22.199 12.238 0 22.199-9.96 22.199-22.199 0-12.238-9.96-22.199-22.199-22.199zm0 29.598c-4.078 0-7.398-3.316-7.398-7.398 0-4.086 3.324-7.399 7.398-7.399 4.078 0 7.398 3.317 7.398 7.399s-3.324 7.398-7.398 7.398zM442.6 376c0 24.484 19.914 44.398 44.398 44.398s44.398-19.914 44.398-44.398-19.914-44.398-44.398-44.398S442.6 351.516 442.6 376zm74 0c0 16.324-13.273 29.598-29.598 29.598S457.404 392.325 457.404 376s13.273-29.598 29.598-29.598c16.32 0 29.598 13.273 29.598 29.598zM383.4 509.2c-24.484 0-44.398 19.914-44.398 44.398s19.914 44.398 44.398 44.398 44.398-19.914 44.398-44.398S407.884 509.2 383.4 509.2zm0 73.996c-16.324 0-29.598-13.273-29.598-29.598S367.075 524 383.4 524c16.324 0 29.598 13.273 29.598 29.598s-13.273 29.598-29.598 29.598zM538.79 324.2c0 16.324 13.273 29.598 29.598 29.598s29.598-13.273 29.598-29.598-13.273-29.598-29.598-29.598c-16.32 0-29.598 13.273-29.598 29.598zm44.398 0c0 8.16-6.637 14.801-14.801 14.801-8.16 0-14.801-6.637-14.801-14.801 0-8.16 6.637-14.801 14.801-14.801s14.801 6.64 14.801 14.801z"></path></svg>